<svg width="9" height="12" viewBox="0 0 9 12" fill="none" xmlns="http://www.w3.org/2000/svg">
<path d="M8.68611 4.65866C8.68611 4.62436 8.68611 4.58319 8.68611 4.54202C8.67238 3.91081 8.52831 3.31389 8.28817 2.77187C7.92453 1.9554 7.33448 1.26244 6.60035 0.7753C5.86621 0.288165 4.98113 0 4.03431 0C3.45111 0 2.88851 0.109777 2.37393 0.308748C1.85935 0.507719 1.38594 0.795883 0.974272 1.15266C0.885078 1.22813 0.837048 1.33791 0.830187 1.44768C0.823326 1.56432 0.871357 1.6741 0.95369 1.75643L1.68096 2.48371L0.535162 3.6295C0.370497 3.79417 0.370497 4.05489 0.535162 4.21269L0.905661 4.58319C0.658663 4.91938 0.459691 5.28302 0.308748 5.68096C0.109777 6.19554 0 6.75815 0 7.34134C0 7.97256 0.1235 8.57633 0.356776 9.13208C0.699829 9.9554 1.27616 10.6621 2.00343 11.1698C2.7307 11.6707 3.60206 11.9794 4.54888 12C4.59005 12 4.62436 12 4.66552 12C5.24871 12 5.81132 11.8902 6.3259 11.6913C6.84048 11.4923 7.31389 11.2041 7.72556 10.8473C7.81475 10.7719 7.86278 10.6621 7.86964 10.5523C7.8765 10.4357 7.82848 10.3259 7.74614 10.2436L7.01887 9.5163L8.16467 8.3705C8.24014 8.29503 8.28817 8.18525 8.28817 8.07547C8.28817 7.96569 8.247 7.86278 8.16467 7.78045L7.79417 7.40995C8.04117 7.07376 8.24014 6.71012 8.39109 6.31218C8.58319 5.80446 8.68611 5.24185 8.68611 4.65866ZM7.60892 6.02401C7.49915 6.30532 7.35506 6.5729 7.19039 6.8199L5.68782 5.31732L3.60206 3.23156L3.3825 3.01201L2.79931 3.5952L5.09091 5.88679L7.27273 8.06861L6.12693 9.21441C5.96226 9.37907 5.96226 9.6398 6.12693 9.7976L6.8199 10.4906C6.5729 10.6621 6.30532 10.7993 6.02401 10.9091C5.59863 11.0738 5.13894 11.163 4.65866 11.163C4.62436 11.163 4.59691 11.163 4.56947 11.163H4.56261C4.04117 11.1492 3.55403 11.0326 3.10806 10.8405C2.43568 10.5455 1.86621 10.0583 1.46141 9.45455C1.0566 8.85077 0.823328 8.1235 0.823328 7.34134C0.823328 6.86106 0.912522 6.40137 1.07719 5.97599C1.18696 5.69468 1.33105 5.4271 1.49571 5.1801L5.3036 8.98799L5.88679 8.4048L5.66724 8.18525L1.74957 4.26758L1.41338 3.93139L2.55918 2.78559C2.63465 2.71012 2.68267 2.60034 2.68267 2.49057C2.68267 2.38079 2.64151 2.27787 2.55918 2.19554L1.86621 1.50257C2.11321 1.33105 2.38079 1.19383 2.66209 1.08405C3.08748 0.919383 3.54717 0.830189 4.02745 0.830189C4.54889 0.830189 5.04288 0.933105 5.49571 1.12521C6.17496 1.40652 6.75815 1.87993 7.16981 2.47684C7.58834 3.07376 7.83534 3.79417 7.85592 4.56947V4.57633C7.85592 4.60377 7.85592 4.63122 7.85592 4.66552C7.86278 5.13894 7.77359 5.59863 7.60892 6.02401Z" fill="#222C3B"/>
</svg>
