<svg width="17" height="16" viewBox="0 0 17 16" fill="none" xmlns="http://www.w3.org/2000/svg">
<g clip-path="url(#clip0_105_53)">
<path d="M15.0876 13.1899L11.7366 10.06C12.6867 8.81104 13.1269 7.24788 12.9682 5.68671C12.8095 4.12555 12.0638 2.68294 10.8818 1.65074C9.69987 0.618553 8.16997 0.0738449 6.60166 0.126823C5.03334 0.1798 3.54369 0.826508 2.43409 1.93611C1.32449 3.04571 0.677786 4.53535 0.624808 6.10367C0.571831 7.67199 1.11654 9.20188 2.14873 10.3838C3.18092 11.5658 4.62353 12.3115 6.1847 12.4702C7.74586 12.6289 9.30903 12.1887 10.5579 11.2386L13.9089 14.3686C14.0665 14.5223 14.278 14.6084 14.4982 14.6084C14.7184 14.6084 14.9299 14.5223 15.0876 14.3686C15.2437 14.2122 15.3314 14.0002 15.3314 13.7792C15.3314 13.5582 15.2437 13.3463 15.0876 13.1899ZM2.33327 6.33329C2.33327 5.44327 2.59719 4.57324 3.09166 3.83322C3.58613 3.0932 4.28893 2.51642 5.1112 2.17583C5.93346 1.83523 6.83826 1.74612 7.71118 1.91975C8.58409 2.09339 9.38592 2.52197 10.0153 3.15131C10.6446 3.78064 11.0732 4.58247 11.2468 5.45538C11.4204 6.3283 11.3313 7.23309 10.9907 8.05536C10.6501 8.87763 10.0734 9.58043 9.33334 10.0749C8.59332 10.5694 7.72329 10.8333 6.83327 10.8333C5.64023 10.8319 4.49646 10.3573 3.65285 9.51371C2.80924 8.6701 2.33468 7.52633 2.33327 6.33329Z" fill="#818283"/>
</g>
<defs>
<clipPath id="clip0_105_53">
<rect width="16" height="16" fill="white" transform="translate(0.5)"/>
</clipPath>
</defs>
</svg>
